<svg viewBox="0 0 800 800" xmlns="http://www.w3.org/2000/svg"><path d="M745.0830123794317,207.4297453987657 L745.0830123794317,194.57595378005396 M55.73666223429609,605.4240462199459 L54.91698762056825,592.1570255726205 M745.0830123794317,207.4297453987657 L55.73666223429609,605.4240462199459 M745.0830123794317,194.57595378005396 L54.91698762056825,592.1570255726205 M745.0830123794317,207.4297453987657 L745.0830123794317,476.16366784578554 M745.0830123794317,463.02417454802674 L745.0830123794317,476.16366784578554 M745.0830123794317,194.57595378005396 L745.0830123794317,463.02417454802674 M318.89176969288695,494.8650204551484 L55.73666223429609,605.4240462199459 M54.91698762056825,592.1570255726205 L318.394085227992,481.7066788513764 M318.394085227992,481.7066788513764 L318.89176969288695,494.8650204551484 M745.0830123794317,476.16366784578554 L744.7595068028379,476.3591311348059 M744.7595068028379,476.3591311348059 L734.4522734079128,471.03930457692036 M734.4522734079128,471.03930457692036 L723.7701065072523,466.01884310607454 M723.7701065072523,466.01884310607454 L712.7348043829554,461.3067826093685 M712.7348043829554,461.3067826093685 L701.3686445211187,456.9115590903466 M701.3686445211187,456.9115590903466 L689.6943401842475,452.8410121800026 M689.6943401842475,452.8410121800026 L677.7351583145196,449.10235607876245 M677.7351583145196,449.10235607876245 L665.5147202259309,445.7022136985054 M665.5147202259309,445.7022136985054 L653.0570002290342,442.646533048377 M653.0570002290342,442.646533048377 L640.3863940576321,439.9406940167346 M640.3863940576321,439.9406940167346 L627.5274820743475,437.5894282296249 M627.5274820743475,437.5894282296249 L614.5052080678972,435.59681767275106 M614.5052080678972,435.59681767275106 L601.3446873075334,433.96634507643546 M601.3446873075334,433.96634507643546 L588.0712561758374,432.7008319525622 M588.0712561758374,432.7008319525622 L574.7104152429924,431.80246017563 M574.7104152429924,431.80246017563 L561.2877548879717,431.27280282495747 M561.2877548879717,431.27280282495747 L547.828972330725,431.1127586235232 M547.828972330725,431.1127586235232 L534.3598322236895,431.3226225193812 M534.3598322236895,431.3226225193812 L520.9061054184463,431.9020122624421 M520.9061054184463,431.9020122624421 L507.49349344513246,432.8499575132697 M507.49349344513246,432.8499575132697 L494.147767729422,434.16477357450503 M494.147767729422,434.16477357450503 L480.8945326839975,435.84420078642745 M480.8945326839975,435.84420078642745 L467.7592290958283,437.88534446838935 M467.7592290958283,437.88534446838935 L454.76724254444025,440.2846346457952 M454.76724254444025,440.2846346457952 L441.94370149714064,443.03789842054925 M441.94370149714064,443.03789842054925 L429.3135538624635,446.14029878503743 M429.3135538624635,446.14029878503743 L416.9014372203273,449.5864075436914 M416.9014372203273,449.5864075436914 L404.73166721484677,453.37017652942427 M404.73166721484677,453.37017652942427 L392.82832383708546,457.48488100707914 M392.82832383708546,457.48488100707914 L381.21495734136295,461.9232672195758 M381.21495734136295,461.9232672195758 L369.91488457345724,466.67736219763094 M369.91488457345724,466.67736219763094 L358.9507976048604,471.73869480965993 M358.9507976048604,471.73869480965993 L348.34500960108323,477.0981186026936 M348.34500960108323,477.0981186026936 L338.11921181633113,482.745950758149 M338.11921181633113,482.745950758149 L328.2946230280862,488.67186837981774 M328.2946230280862,488.67186837981774 L318.89176969288695,494.8650204551484 M745.0830123794317,463.02417454802674 L744.7591301834589,463.2194401420994 M318.394085227992,481.7066788513764 L327.8084162876593,475.5197536938116 M327.8084162876593,475.5197536938116 L337.64493086064743,469.59980811154117 M337.64493086064743,469.59980811154117 L347.88307783444674,463.9576803181111 M347.88307783444674,463.9576803181111 L358.5016133139421,458.60368093846785 M358.5016133139421,458.60368093846785 L369.4788207240093,453.5474811783031 M369.4788207240093,453.5474811783031 L380.79236118463876,448.79821644810534 M380.79236118463876,448.79821644810534 L392.4195167981848,444.3643475647932 M392.4195167981848,444.3643475647932 L404.336944470361,440.2538377463711 M404.336944470361,440.2538377463711 L416.5210677309376,436.47393180191773 M416.5210677309376,436.47393180191773 L428.94778003242936,433.0313461421131 M428.94778003242936,433.0313461421131 L441.5927391664038,429.9321213966987 M441.5927391664038,429.9321213966987 L454.43128085713215,427.18167896540376 M454.43128085713215,427.18167896540376 L467.4384303597951,424.78484978289805 M467.4384303597951,424.78484978289805 L480.589032362413,422.7458014817805 M480.589032362413,422.7458014817805 L493.8576743170669,421.0680995244961 M493.8576743170669,421.0680995244961 L507.21888855752366,419.75463491459766 M507.21888855752366,419.75463491459766 L520.6470437281965,418.8076644345671 M520.6470437281965,418.8076644345671 L534.1163413648667,418.2288706473803 M534.1163413648667,418.2288706473803 L547.6010530568948,418.0192226477833 M547.6010530568948,418.0192226477833 L561.0753810373919,418.17910220314366 M561.0753810373919,418.17910220314366 L574.513533768038,418.7082147370852 M574.513533768038,418.7082147370852 L587.8897872138602,419.6056626765875 M587.8897872138602,419.6056626765875 L601.1785242732751,420.8698749412158 M601.1785242732751,420.8698749412158 L614.354217698062,422.49867243355664 M614.354217698062,422.49867243355664 L627.3915045336759,424.48923722411473 M627.3915045336759,424.48923722411473 L640.2652430863725,426.838090986442 M640.2652430863725,426.838090986442 L652.9504632075655,429.541156889366 M652.9504632075655,429.541156889366 L665.4225584396966,432.59370925527594 M665.4225584396966,432.59370925527594 L677.6571069899035,435.9903749269623 M677.6571069899035,435.9903749269623 L689.6301087769773,439.72521331637654 M689.6301087769773,439.72521331637654 L701.3179169079428,443.79160971995793 M701.3179169079428,443.79160971995793 L712.6972390361266,448.18235883438933 M712.6972390361266,448.18235883438933 L723.7453368849311,452.88963063551273 M723.7453368849311,452.88963063551273 L734.4399081936631,457.9049993919476 M734.4399081936631,457.9049993919476 L744.7591301834589,463.2194401420994 M744.7591301834589,463.2194401420994 L744.7595068028379,476.3591311348059" stroke="black"  stroke-width="4"  fill="red"/></svg>